<svg width="26" height="26" viewBox="0 0 26 26" fill="none" xmlns="http://www.w3.org/2000/svg">
<path d="M6.70735 5.29289C6.31683 4.90237 5.68366 4.90237 5.29314 5.29289C4.90261 5.68342 4.90261 6.31658 5.29314 6.70711L11.5858 12.9998L5.29289 19.2927C4.90237 19.6832 4.90237 20.3164 5.29289 20.7069C5.68342 21.0974 6.31658 21.0974 6.70711 20.7069L13 14.414L19.2929 20.7069C19.6834 21.0974 20.3166 21.0974 20.7071 20.7069C21.0976 20.3163 21.0976 19.6832 20.7071 19.2927L14.4142 12.9998L20.7069 6.70717C21.0974 6.31664 21.0974 5.68348 20.7069 5.29295C20.3163 4.90243 19.6832 4.90243 19.2927 5.29295L13 11.5856L6.70735 5.29289Z" fill="url(#paint0_linear_55_1857)"/>
<defs>
<linearGradient id="paint0_linear_55_1857" x1="19.8923" y1="21.5399" x2="7.6179" y2="11.0572" gradientUnits="userSpaceOnUse">
<stop stop-color="#008072"/>
<stop offset="1" stop-color="#13B8A6"/>
</linearGradient>
</defs>
</svg>
