<svg width="26" height="26" viewBox="0 0 26 26" fill="none" xmlns="http://www.w3.org/2000/svg">
<path fill-rule="evenodd" clip-rule="evenodd" d="M16.7083 10.75C16.7083 13.613 16.7366 16.176 16.7636 17.9703C16.0594 19.7171 15.3987 21.805 14.9831 23.1969C14.6543 24.2979 13.6336 25.1716 12.3844 25.0183C11.9226 24.9617 11.4017 24.8681 10.887 24.7129C9.43873 24.2765 8.74643 22.8626 8.65153 21.5366C8.58344 20.5852 8.57272 19.6235 8.59178 18.7368C7.16205 18.8682 5.8782 18.9754 4.6979 19.047C2.75392 19.165 1.11001 17.7009 1.03602 15.7461C0.91994 12.6818 1.0097 7.69273 2.45275 3.78271C3.03228 2.21236 4.56222 1.31547 6.16089 1.28173C9.69223 1.20725 13.1682 1.53024 15.7566 1.87046C16.1187 1.91802 16.4636 1.96601 16.7891 2.0133C16.7585 3.65444 16.7083 6.93602 16.7083 10.75ZM21.5832 1C22.2389 1 22.8046 1.08445 23.2627 1.19425C24.4453 1.47765 25.0086 2.57013 25.0312 3.56355C25.0617 4.90456 25.104 7.24884 25.104 9.93751C25.104 12.6262 25.0617 14.9705 25.0312 16.3115C25.0086 17.3049 24.4453 18.3974 23.2627 18.6808C22.8046 18.7906 22.2389 18.875 21.5832 18.875C20.9274 18.875 20.3618 18.7906 19.9037 18.6808C18.7211 18.3974 18.1578 17.3049 18.1352 16.3115C18.1046 14.9705 18.0623 12.6262 18.0623 9.93751C18.0623 7.24884 18.1046 4.90456 18.1352 3.56355C18.1578 2.57013 18.7211 1.47765 19.9037 1.19425C20.3618 1.08445 20.9274 1 21.5832 1ZM21.5832 7.22917C20.9849 7.22917 20.4998 6.74416 20.4998 6.14584V5.0625C20.4998 4.46423 20.9849 3.97917 21.5832 3.97917C22.1815 3.97917 22.6665 4.46423 22.6665 5.0625V6.14584C22.6665 6.74416 22.1815 7.22917 21.5832 7.22917Z" fill="url(#paint0_linear_18_2038)"/>
<defs>
<linearGradient id="paint0_linear_18_2038" x1="2.66873" y1="0.188689" x2="21.1161" y2="15.9878" gradientUnits="userSpaceOnUse">
<stop stop-color="rgb(20, 245, 158)"/>
<stop offset="1" stop-color="rgb(20, 245, 158)"/>
</linearGradient>
</defs>
</svg>
