<svg width="26" height="26" viewBox="0 0 26 26" fill="none" xmlns="http://www.w3.org/2000/svg">
<path d="M24.9155 4.17305C24.8938 3.3768 24.4247 2.6618 23.6464 2.49551C23.1464 2.3888 22.5062 2.3016 21.75 2.3016C20.9938 2.3016 20.3536 2.38826 19.8542 2.49551C19.0752 2.6618 18.6056 3.37734 18.5845 4.17305C18.5482 5.52505 18.5 7.81305 18.5 10.4266C18.5 13.0401 18.5482 15.3281 18.5845 16.6796C18.6062 17.4758 19.0752 18.1908 19.8536 18.3571C20.4772 18.4883 21.1128 18.5534 21.75 18.5516C22.5062 18.5516 23.1464 18.4638 23.6458 18.3571C24.4247 18.1908 24.8944 17.4753 24.9155 16.6796C24.9518 15.3281 25 13.0401 25 10.4266C25 7.81305 24.9518 5.52505 24.9155 4.17305Z" stroke="#636363" stroke-width="1.5" stroke-linecap="round" stroke-linejoin="round"/>
<path d="M18.6354 17.2109C17.7601 19.1279 16.7607 21.8411 16.2591 23.5203C15.9883 24.4276 15.1725 25.0776 14.2295 24.9925C13.6363 24.9394 12.9501 24.8392 12.3066 24.6551C11.1501 24.3236 10.5277 23.1872 10.4416 21.9868C10.3593 20.8358 10.3625 19.6636 10.401 18.6296C8.64218 18.7948 6.91697 18.9264 5.3743 19.0066C3.72764 19.0927 2.34801 17.8609 2.28572 16.2143C2.1698 13.1609 2.26513 8.26261 3.66913 4.45902C4.15934 3.13194 5.46584 2.34219 6.88068 2.3124C11.4854 2.2149 16.1627 2.78527 18.8694 3.19586" stroke="#636363" stroke-width="1.5" stroke-linecap="round" stroke-linejoin="round"/>
<path d="M21.75 5.55155V6.63489" stroke="#636363" stroke-width="1.5" stroke-linecap="round" stroke-linejoin="round"/>
</svg>
