<svg width="26" height="26" viewBox="0 0 26 26" fill="none" xmlns="http://www.w3.org/2000/svg">
<path d="M0.999512 12.6458C0.999512 11.5526 1.01273 10.5619 1.03543 9.66661C1.41649 9.66694 1.89781 9.66569 2.42198 9.66038C3.65211 9.64787 5.15361 9.61261 6.14144 9.51787C7.94687 9.3447 9.35055 7.9056 9.52453 6.09183C9.61938 5.10323 9.65209 3.61374 9.66217 2.39591C9.66645 1.87458 9.66661 1.39652 9.66542 1.01894C10.2576 1.00677 10.8893 1 11.562 1C14.9825 1 17.3438 1.17504 18.83 1.3449C20.3984 1.52414 21.5891 2.71598 21.7623 4.28688C21.9181 5.70123 22.0814 7.94249 22.1172 11.2761C21.0538 10.7653 19.8621 10.4792 18.6036 10.4792C14.1162 10.4792 10.4786 14.1168 10.4786 18.6042C10.4786 20.8147 11.3613 22.819 12.7935 24.2838C12.3993 24.289 11.9888 24.2917 11.562 24.2917C8.14144 24.2917 5.78015 24.1166 4.29393 23.9468C2.72553 23.7676 1.53479 22.5757 1.36167 21.0048C1.1853 19.4048 0.999512 16.7466 0.999512 12.6458Z" fill="url(#paint0_linear_60_1901)"/>
<path d="M8.03723 2.38249C8.0271 3.60358 7.99416 5.02745 7.90695 5.93664C7.80523 6.99744 6.99533 7.8035 5.98631 7.90029C5.07631 7.98756 3.63932 8.02292 2.40541 8.03544C1.97083 8.03988 1.56577 8.04145 1.22409 8.04167C1.54546 7.28664 2.32529 5.90533 4.16664 4.10007C5.90159 2.39913 7.25089 1.62386 8.04096 1.27799C8.04134 1.60187 8.04053 1.97918 8.03723 2.38249Z" fill="url(#paint1_linear_60_1901)"/>
<path fill-rule="evenodd" clip-rule="evenodd" d="M18.4998 25.1042C22.0896 25.1042 24.9998 22.194 24.9998 18.6042C24.9998 15.0143 22.0896 12.1042 18.4998 12.1042C14.9099 12.1042 11.9998 15.0143 11.9998 18.6042C11.9998 22.194 14.9099 25.1042 18.4998 25.1042ZM22.0809 17.0793C22.4353 16.5972 22.3319 15.9191 21.8499 15.5647C21.3678 15.2103 20.6897 15.3137 20.3353 15.7957L17.9451 19.0464L16.6038 17.5263C16.2079 17.0776 15.5233 17.0349 15.0747 17.4308C14.626 17.8266 14.5833 18.5112 14.9791 18.9598L17.2095 21.4876C17.4263 21.7333 17.7426 21.8677 18.07 21.8531C18.3973 21.8385 18.7005 21.6766 18.8946 21.4126L22.0809 17.0793Z" fill="url(#paint2_linear_60_1901)"/>
<defs>
<linearGradient id="paint0_linear_60_1901" x1="23.3382" y1="25.9178" x2="4.85918" y2="10.2044" gradientUnits="userSpaceOnUse">
<stop stop-color="rgb(20, 245, 158)"/>
<stop offset="1" stop-color="rgb(20, 245, 158)"/>
</linearGradient>
<linearGradient id="paint1_linear_60_1901" x1="23.3382" y1="25.9178" x2="4.85918" y2="10.2044" gradientUnits="userSpaceOnUse">
<stop stop-color="rgb(20, 245, 158)"/>
<stop offset="1" stop-color="rgb(20, 245, 158)"/>
</linearGradient>
<linearGradient id="paint2_linear_60_1901" x1="23.3382" y1="25.9178" x2="4.85918" y2="10.2044" gradientUnits="userSpaceOnUse">
<stop stop-color="rgb(20, 245, 158)"/>
<stop offset="1" stop-color="rgb(20, 245, 158)"/>
</linearGradient>
</defs>
</svg>
