<svg width="26" height="26" viewBox="0 0 26 26" fill="none" xmlns="http://www.w3.org/2000/svg">
<path d="M10.841 23.2846C8.06816 23.2505 6.10516 23.0983 4.82412 22.952C3.63245 22.8155 2.7387 21.9213 2.60762 20.7285C2.43483 19.1631 2.25012 16.5355 2.25012 12.4583C2.25012 10.9005 2.2772 9.55446 2.32054 8.398C2.51066 7.86608 3.16012 6.46533 5.17295 4.49258C7.30766 2.39958 8.78587 1.81025 9.24575 1.66671C10.1636 1.63838 11.0818 1.62447 12.0001 1.625C15.3931 1.625 17.7234 1.79833 19.1761 1.96462C20.3683 2.10112 21.2615 2.99542 21.3926 4.18817C21.5145 5.28992 21.6418 6.91817 21.7068 9.20833" stroke="#636363" stroke-width="1.5" stroke-linecap="round" stroke-linejoin="round"/>
<path d="M2.31294 8.64499C3.44339 8.81291 5.47627 8.68399 7.01894 8.54099C7.60698 8.48838 8.15802 8.23148 8.57638 7.81491C8.99473 7.39833 9.25398 6.84839 9.3091 6.26058C9.45481 4.74229 9.58373 2.75708 9.40714 1.66237" stroke="#636363" stroke-width="1.5" stroke-linecap="round" stroke-linejoin="round"/>
<path d="M12 18.5C12 20.2239 12.6848 21.8772 13.9038 23.0962C15.1228 24.3152 16.7761 25 18.5 25C20.2239 25 21.8772 24.3152 23.0962 23.0962C24.3152 21.8772 25 20.2239 25 18.5C25 16.7761 24.3152 15.1228 23.0962 13.9038C21.8772 12.6848 20.2239 12 18.5 12C16.7761 12 15.1228 12.6848 13.9038 13.9038C12.6848 15.1228 12 16.7761 12 18.5Z" stroke="#636363" stroke-width="1.5" stroke-linecap="round" stroke-linejoin="round"/>
<path d="M21.2084 16.3333L18.0223 20.6667L15.7917 18.1387" stroke="#636363" stroke-width="1.5" stroke-linecap="round" stroke-linejoin="round"/>
</svg>
