<svg width="26" height="26" viewBox="0 0 26 26" fill="none" xmlns="http://www.w3.org/2000/svg">
<path d="M23.1715 14.32C24.2873 12.532 24.6502 10.3171 24.1649 8.25661C23.1281 3.56469 17.3886 1.64773 13.8136 4.79211C13.5303 5.03911 13.2785 5.32457 13.0001 5.60894C12.7216 5.32457 12.4692 5.03911 12.1865 4.79211C8.61147 1.64773 2.87197 3.56469 1.83522 8.25661C1.35043 10.3166 1.71334 12.532 2.82863 14.32C4.78026 17.4541 7.92734 19.8938 10.997 22.1059C11.5808 22.5249 12.2814 22.7503 13.0001 22.7503C13.7187 22.7503 14.4193 22.5249 15.0031 22.1059C18.0728 19.8943 21.2198 17.4541 23.1715 14.32Z" stroke="#636363" stroke-width="1.5" stroke-linecap="round" stroke-linejoin="round"/>
</svg>
