<svg width="26" height="26" viewBox="0 0 26 26" fill="none" xmlns="http://www.w3.org/2000/svg">
<path d="M14.5247 2.25324C18.4435 3.99271 21.4141 6.27745 22.9498 7.59787C23.7259 8.2652 24.1587 9.22563 24.2122 10.2478C24.2858 11.6514 24.375 13.8478 24.375 16.25C24.375 18.098 24.3222 19.8825 24.2644 21.2837C24.1973 22.9093 22.9047 24.1915 21.2787 24.247C19.4043 24.311 16.6232 24.375 13.0001 24.375C9.3769 24.375 6.59571 24.311 4.72135 24.247C3.09533 24.1915 1.8028 22.9094 1.73566 21.2838C1.67779 19.8826 1.625 18.098 1.625 16.25C1.625 13.8478 1.7142 11.6514 1.78781 10.2477C1.84142 9.22558 2.27414 8.2652 3.05024 7.59793C4.58592 6.2775 7.55658 3.99272 11.4754 2.25324C12.4457 1.82257 13.5545 1.82257 14.5247 2.25324Z" stroke="#ffffff" stroke-width="1.5" stroke-linecap="round" stroke-linejoin="round"/>
<path d="M8.66675 20.5833H17.3334" stroke="#ffffff" stroke-width="1.5" stroke-linecap="round" stroke-linejoin="round"/>
</svg>
