<svg width="26" height="26" viewBox="0 0 26 26" fill="none" xmlns="http://www.w3.org/2000/svg">
<path fill-rule="evenodd" clip-rule="evenodd" d="M11.1411 1.52339C12.3211 0.983169 13.6789 0.983169 14.8589 1.52339C19.0653 3.44924 22.1992 6.20423 23.7083 7.69035C24.522 8.49164 24.9568 9.56013 25.0177 10.6622C25.0929 12.0203 25.1875 14.2223 25.1875 16.7064C25.1875 18.4594 25.1404 20.0716 25.0863 21.3454C24.9996 23.3869 23.3695 24.9883 21.3339 25.0581C19.4504 25.1227 16.6505 25.1875 13 25.1875C9.34955 25.1875 6.54962 25.1227 4.66608 25.0581C2.63052 24.9883 1.00039 23.3869 0.9137 21.3454C0.859603 20.0716 0.8125 18.4594 0.8125 16.7064C0.8125 14.2223 0.907091 12.0203 0.982253 10.6622C1.04324 9.56013 1.47803 8.49164 2.29175 7.69035C3.80084 6.20423 6.93469 3.44924 11.1411 1.52339ZM8.66667 19.5C8.06834 19.5 7.58333 19.985 7.58333 20.5833C7.58333 21.1816 8.06834 21.6667 8.66667 21.6667H17.3333C17.9317 21.6667 18.4167 21.1816 18.4167 20.5833C18.4167 19.985 17.9317 19.5 17.3333 19.5H8.66667Z" fill="url(#paint0_linear_18_1911)"/>
<defs>
<linearGradient id="paint0_linear_18_1911" x1="23.5" y1="25.9999" x2="5" y2="9.99994" gradientUnits="userSpaceOnUse">
<stop stop-color="rgb(20, 245, 158)"/>
<stop offset="1" stop-color="rgb(20, 245, 158)"/>
</linearGradient>
</defs>
</svg>
