<svg width="26" height="26" viewBox="0 0 26 26" fill="none" xmlns="http://www.w3.org/2000/svg">
<g clip-path="url(#clip0_18_2012)">
<path d="M1.7095 22.4521C1.73117 23.2483 2.20025 23.9633 2.97863 24.1296C3.47858 24.2363 4.11883 24.3235 4.875 24.3235C5.63117 24.3235 6.27142 24.2369 6.77083 24.1296C7.54975 23.9633 8.01938 23.2478 8.0405 22.4521C8.07679 21.1001 8.125 18.8121 8.125 16.1985C8.125 13.585 8.07679 11.297 8.0405 9.94553C8.01883 9.14927 7.54975 8.43427 6.77138 8.26798C6.14782 8.13685 5.51219 8.07168 4.875 8.07352C4.11883 8.07352 3.47858 8.16127 2.97917 8.26798C2.20025 8.43427 1.73062 9.14982 1.7095 9.94553C1.67321 11.297 1.625 13.585 1.625 16.1985C1.625 18.8121 1.67321 21.1001 1.7095 22.4521Z" stroke="#636363" stroke-width="1.5" stroke-linecap="round" stroke-linejoin="round"/>
<path d="M7.98962 9.41418C8.86495 7.49722 9.86432 4.78401 10.3659 3.10485C10.6367 2.19755 11.4525 1.54755 12.3955 1.6326C12.9887 1.68568 13.6749 1.78589 14.3184 1.97005C15.4749 2.30156 16.0973 3.43797 16.1834 4.63831C16.2657 5.78935 16.2625 6.96151 16.224 7.99556C17.9828 7.83035 19.708 7.69872 21.2507 7.61856C22.8974 7.53243 24.277 8.76418 24.3393 10.4108C24.4552 13.4642 24.3599 18.3625 22.9559 22.1661C22.4657 23.4932 21.1592 24.2829 19.7443 24.3127C15.1396 24.4102 10.4623 23.8399 7.75562 23.4293" stroke="#636363" stroke-width="1.5" stroke-linecap="round" stroke-linejoin="round"/>
<path d="M4.875 21.0736V19.9902" stroke="#636363" stroke-width="1.5" stroke-linecap="round" stroke-linejoin="round"/>
</g>
<defs>
<clipPath id="clip0_18_2012">
<rect width="26" height="26" fill="white"/>
</clipPath>
</defs>
</svg>
