<svg width="26" height="26" viewBox="0 0 26 26" fill="none" xmlns="http://www.w3.org/2000/svg">
<path fill-rule="evenodd" clip-rule="evenodd" d="M9.20823 15.4374C9.20823 12.5744 9.1799 10.0114 9.15287 8.21712C9.85709 6.47024 10.5178 4.38233 10.9334 2.99048C11.2622 1.88949 12.2829 1.01581 13.5321 1.16905C13.9939 1.22569 14.5148 1.31933 15.0295 1.47443C16.4778 1.9109 17.1701 3.32481 17.265 4.65075C17.3331 5.60217 17.3438 6.56384 17.3247 7.4506C18.7545 7.3192 20.0383 7.21195 21.2186 7.14034C23.1626 7.02236 24.8065 8.48643 24.8805 10.4413C24.9966 13.5056 24.9068 18.4946 23.4638 22.4047C22.8842 23.975 21.3543 24.8719 19.7556 24.9057C16.2243 24.9801 12.7483 24.6571 10.1599 24.3169C9.79783 24.2694 9.4529 24.2214 9.12741 24.1741C9.15796 22.5329 9.20823 19.2514 9.20823 15.4374ZM4.33333 25.1874C3.67758 25.1874 3.11193 25.1029 2.65385 24.9931C1.47124 24.7097 0.907936 23.6172 0.885332 22.6238C0.85482 21.2828 0.8125 18.9385 0.8125 16.2499C0.8125 13.5611 0.85482 11.2169 0.885332 9.87586C0.907936 8.8825 1.47124 7.78996 2.65385 7.50656C3.11193 7.39682 3.67758 7.31237 4.33333 7.31237C4.98909 7.31237 5.55474 7.39682 6.01283 7.50656C7.19545 7.78996 7.75873 8.8825 7.78131 9.87586C7.81186 11.2169 7.85417 13.5611 7.85417 16.2499C7.85417 18.9385 7.81186 21.2828 7.78131 22.6238C7.75873 23.6172 7.19545 24.7097 6.01283 24.9931C5.55474 25.1029 4.98909 25.1874 4.33333 25.1874ZM4.33333 18.9582C4.93164 18.9582 5.41667 19.4432 5.41667 20.0415V21.1249C5.41667 21.7231 4.93164 22.2082 4.33333 22.2082C3.73502 22.2082 3.25 21.7231 3.25 21.1249V20.0415C3.25 19.4432 3.73502 18.9582 4.33333 18.9582Z" fill="url(#paint0_linear_18_2035)"/>
<defs>
<linearGradient id="paint0_linear_18_2035" x1="23.2478" y1="25.9987" x2="4.8004" y2="10.1996" gradientUnits="userSpaceOnUse">
<stop stop-color="rgb(20, 245, 158)"/>
<stop offset="1" stop-color="rgb(20, 245, 158)"/>
</linearGradient>
</defs>
</svg>
