<svg width="26" height="26" viewBox="0 0 26 26" fill="none" xmlns="http://www.w3.org/2000/svg">
  <g clip-path="url(#clip0_18_2120)">
    <path d="M14 7.85714C13.9674 6.22114 13.9217 4.92684 13.8779 3.94856C13.8141 2.51771 12.9785 1.368 11.8159 1.22741C10.8139 1.10627 9.40056 1 7.52401 1C5.64741 1 4.23358 1.10627 3.23216 1.22741C2.06901 1.368 1.23395 2.51771 1.17011 3.94916C1.0876 5.78972 1 8.74971 1 13C1 17.2503 1.0876 20.2103 1.17011 22.0514C1.23395 23.4823 2.06945 24.632 3.23216 24.7726C4.23403 24.8937 5.64741 25 7.52401 25C9.40056 25 10.8144 24.8937 11.8159 24.7726C12.9785 24.632 13.8141 23.4823 13.8779 22.0514C13.9217 21.0732 13.9669 19.7789 14 18.1429" stroke="white" stroke-width="1.5" stroke-linecap="round" stroke-linejoin="round"/>
    <path d="M19.624 18.7313C18.9955 19.2635 18.1473 18.8649 18.0918 18.0433C18.0437 17.3146 17.9916 16.4098 17.9559 15.4263L6.91177 15.0242C6.20398 14.9987 5.58226 14.5327 5.50014 13.8295C5.47127 13.5792 5.4509 13.2995 5.4509 13C5.4509 12.6999 5.47127 12.4202 5.50014 12.1705C5.58226 11.4672 6.20338 11.0012 6.91177 10.9757L17.9553 10.5737C17.9879 9.70035 18.0334 8.82751 18.0918 7.95548C18.1468 7.13447 18.9961 6.73526 19.6246 7.26756C20.1778 7.73578 20.9054 8.39092 21.8249 9.29291C23.3367 10.7764 24.0705 11.8143 24.416 12.4071C24.6325 12.7719 24.6325 13.2258 24.416 13.5905C24.0706 14.1834 23.3367 15.2213 21.8249 16.7053C20.9054 17.6079 20.1772 18.263 19.624 18.7313Z" stroke="white" stroke-width="1.5" stroke-linecap="round" stroke-linejoin="round"/>
  </g>
  <defs>
    <clipPath id="clip0_18_2120">
      <rect width="26" height="26" fill="white"/>
    </clipPath>
  </defs>
</svg>
