<svg width="26" height="26" viewBox="0 0 26 26" fill="none" xmlns="http://www.w3.org/2000/svg">
<path fill-rule="evenodd" clip-rule="evenodd" d="M18.597 18.0663C18.6511 18.8913 19.489 19.2916 20.1094 18.7575C20.6557 18.2872 21.3741 17.629 22.2821 16.7224C23.7745 15.2323 24.4989 14.1895 24.8396 13.5942C25.0534 13.2203 25.0535 12.7793 24.8396 12.4053C24.499 11.8099 23.7746 10.7671 22.2821 9.27717C21.3744 8.37094 20.656 7.71293 20.1099 7.24262C19.4893 6.70834 18.6511 7.10872 18.5969 7.93392C18.5496 8.65558 18.4992 9.55009 18.4636 10.5222L6.44163 10.9671C5.74269 10.9929 5.12955 11.4609 5.04834 12.1678C5.01957 12.4184 5 12.6996 5 13.0006C5 13.3016 5.01957 13.5828 5.04834 13.8334C5.12955 14.5403 5.74269 15.0083 6.44163 15.0342L18.4637 15.479C18.4993 16.4507 18.5496 17.3449 18.597 18.0663Z" fill="url(#paint0_linear_18_2124)"/>
<path d="M11.9757 0.252555C10.8759 0.12189 9.35738 0 7.51915 0C5.68096 0 4.16241 0.12189 3.06262 0.252555C1.54783 0.432513 0.386651 1.82154 0.258409 3.63543C0.130776 5.43942 0 8.40806 0 13C0 17.5919 0.130776 20.5605 0.258409 22.3646C0.386651 24.1784 1.54783 25.5675 3.06262 25.7474C4.16241 25.8781 5.68096 26 7.51915 26C9.35738 26 10.8759 25.8781 11.9757 25.7474C13.4905 25.5675 14.6516 24.1784 14.7799 22.3646C14.8529 21.3335 14.9268 19.5177 14.9768 17.5232L15 17.5L15.0001 16.5C12.1667 16.5 6.29999 16.4 5.5 16C4.7 15.6 4.16672 14.5 4.00008 14C3.83341 13.3333 3.80008 11.7 5.00008 10.5C5.74669 9.7534 6.91908 9.74228 9.26394 9.72004C10.6879 9.70653 12.5442 9.68892 15.0001 9.50002C14.9519 7.11831 14.8652 4.84068 14.7799 3.63543C14.6516 1.82154 13.4905 0.432513 11.9757 0.252555Z" fill="url(#paint1_linear_18_2124)"/>
<defs>
<linearGradient id="paint0_linear_18_2124" x1="23.2692" y1="26.8776" x2="3.45999" y2="10.6109" gradientUnits="userSpaceOnUse">
<stop stop-color="rgb(20, 245, 158)"/>
<stop offset="1" stop-color="rgb(20, 245, 158)"/>
</linearGradient>
<linearGradient id="paint1_linear_18_2124" x1="23.2692" y1="26.8776" x2="3.45999" y2="10.6109" gradientUnits="userSpaceOnUse">
<stop stop-color="rgb(20, 245, 158)"/>
<stop offset="1" stop-color="rgb(20, 245, 158)"/>
</linearGradient>
</defs>
</svg>
