<svg width="26" height="26" viewBox="0 0 26 26" fill="none" xmlns="http://www.w3.org/2000/svg">
<g clip-path="url(#clip0_18_1936)">
<g clip-path="url(#clip1_18_1936)">
<path d="M1.77233 21.7512C1.87633 23.1281 2.95479 24.1486 4.33333 24.2277C5.67396 24.3041 7.63317 24.375 10.2917 24.375C12.9496 24.375 14.9094 24.3041 16.25 24.2272C17.6286 24.1486 18.707 23.1281 18.811 21.7517C18.8912 20.6863 18.9583 19.2281 18.9583 17.3334C18.9583 15.4381 18.8912 13.9804 18.811 12.9155C18.707 11.5386 17.6286 10.5181 16.25 10.439C14.9094 10.3626 12.9496 10.2917 10.2917 10.2917C7.63317 10.2917 5.67396 10.3626 4.33333 10.4396C2.95479 10.5181 1.87633 11.5386 1.77233 12.915C1.69217 13.9804 1.625 15.4386 1.625 17.3334C1.625 19.2286 1.69217 20.6863 1.77233 21.7512Z" stroke="#636363" stroke-width="1.5" stroke-linejoin="round"/>
<path d="M18.9014 20.1988C18.936 19.3846 18.9582 18.4329 18.9582 17.3334C18.9582 16.2338 18.936 15.2815 18.9014 14.4674C19.7865 13.9956 21.0355 13.3803 22.277 12.9372C23.2526 12.5889 24.1794 13.1831 24.266 14.2155C24.3272 14.9484 24.3749 15.9597 24.3749 17.3328C24.3749 18.7065 24.3272 19.7172 24.266 20.4501C24.1794 21.4825 23.2531 22.0767 22.277 21.7284C21.0355 21.2859 19.7865 20.6711 18.9014 20.1988Z" stroke="#636363" stroke-width="1.5" stroke-linejoin="round"/>
<path d="M3.79175 4.60417C3.79175 5.39429 4.10562 6.15205 4.66433 6.71075C5.22303 7.26946 5.98079 7.58333 6.77091 7.58333C7.56104 7.58333 8.3188 7.26946 8.8775 6.71075C9.4362 6.15205 9.75008 5.39429 9.75008 4.60417C9.75008 3.81404 9.4362 3.05628 8.8775 2.49758C8.3188 1.93888 7.56104 1.625 6.77091 1.625C5.98079 1.625 5.22303 1.93888 4.66433 2.49758C4.10562 3.05628 3.79175 3.81404 3.79175 4.60417Z" stroke="#636363" stroke-width="1.5" stroke-linejoin="round"/>
<path d="M12.4583 5.41667C12.4583 5.9913 12.6865 6.5424 13.0929 6.94873C13.4992 7.35506 14.0503 7.58334 14.6249 7.58334C15.1996 7.58334 15.7507 7.35506 16.157 6.94873C16.5633 6.5424 16.7916 5.9913 16.7916 5.41667C16.7916 4.84203 16.5633 4.29093 16.157 3.8846C15.7507 3.47827 15.1996 3.25 14.6249 3.25C14.0503 3.25 13.4992 3.47827 13.0929 3.8846C12.6865 4.29093 12.4583 4.84203 12.4583 5.41667Z" stroke="#636363" stroke-width="1.5" stroke-linejoin="round"/>
<path d="M12.4707 14.436C12.4886 13.9685 12.7914 13.6126 13.2572 13.5726C13.532 13.5506 13.8076 13.5403 14.0833 13.5417C14.4245 13.5417 14.6953 13.5541 14.9093 13.5726C15.3751 13.6126 15.6785 13.9691 15.6958 14.436C15.7034 14.6294 15.7083 14.8693 15.7083 15.1667C15.7083 15.4635 15.7028 15.704 15.6958 15.8974C15.6779 16.3649 15.3751 16.7207 14.9093 16.7608C14.6345 16.7828 14.3589 16.7931 14.0833 16.7917C13.742 16.7917 13.4712 16.7792 13.2572 16.7608C12.7914 16.7207 12.488 16.3643 12.4707 15.8974C12.4631 15.704 12.4583 15.4641 12.4583 15.1667C12.4583 14.8699 12.4637 14.6294 12.4707 14.436Z" stroke="#636363" stroke-width="1.5" stroke-linejoin="round"/>
</g>
</g>
<defs>
<clipPath id="clip0_18_1936">
<rect width="26" height="26" fill="white"/>
</clipPath>
<clipPath id="clip1_18_1936">
<rect width="26" height="26" fill="white"/>
</clipPath>
</defs>
</svg>
