<svg width="26" height="26" viewBox="0 0 26 26" fill="none" xmlns="http://www.w3.org/2000/svg">
<g clip-path="url(#clip0_18_2002)">
<path fill-rule="evenodd" clip-rule="evenodd" d="M2.97917 4.60417C2.97917 2.51009 4.67675 0.8125 6.77083 0.8125C8.86492 0.8125 10.5625 2.51009 10.5625 4.60417C10.5625 6.69825 8.86492 8.39583 6.77083 8.39583C4.67675 8.39583 2.97917 6.69825 2.97917 4.60417ZM22.9444 21.9837C22.2862 21.7489 21.6271 21.4667 21.0203 21.183C21.081 20.1608 21.1248 18.885 21.1248 17.3333C21.1248 15.7811 21.0809 14.505 21.0202 13.4827C21.627 13.1988 22.2862 12.9167 22.9444 12.6818C23.5063 12.4814 24.0703 12.5484 24.5097 12.8307C24.9492 13.113 25.2443 13.5979 25.2942 14.1929C25.3564 14.9348 25.404 15.9532 25.404 17.3328C25.404 18.7124 25.3564 19.7308 25.2942 20.4727C25.2443 21.0677 24.9492 21.5526 24.5097 21.8349C24.0703 22.1172 23.5063 22.1842 22.9444 21.9837ZM14.625 2.4375C12.9796 2.4375 11.6458 3.77132 11.6458 5.41667C11.6458 7.06203 12.9796 8.39583 14.625 8.39583C16.2704 8.39583 17.6042 7.06203 17.6042 5.41667C17.6042 3.77132 16.2704 2.4375 14.625 2.4375ZM10.2917 25.1875C7.61903 25.1875 5.64417 25.1162 4.2868 25.0385C2.51748 24.9374 1.09774 23.611 0.962265 21.8123C0.880436 20.726 0.8125 19.2476 0.8125 17.3333C0.8125 15.419 0.880436 13.9407 0.962265 12.8543C1.09775 11.0557 2.51748 9.72925 4.2868 9.62813C5.64417 9.5505 7.61903 9.47917 10.2917 9.47917C12.9643 9.47917 14.9392 9.5505 16.2965 9.62813C18.0659 9.72925 19.4856 11.0557 19.6211 12.8543C19.7029 13.9407 19.7708 15.419 19.7708 17.3333C19.7708 19.2476 19.7029 20.726 19.6211 21.8123C19.4856 23.611 18.0658 24.9374 16.2965 25.0385C14.9392 25.1162 12.9643 25.1875 10.2917 25.1875ZM13.0123 13.8943C13.0302 13.4271 13.3329 13.071 13.7987 13.031C14.0127 13.0127 14.284 13 14.625 13C14.966 13 15.2373 13.0127 15.4513 13.031C15.9171 13.071 16.2198 13.4271 16.2376 13.8943C16.2451 14.0877 16.25 14.328 16.25 14.625C16.25 14.922 16.2451 15.1623 16.2376 15.3557C16.2198 15.8229 15.9171 16.179 15.4513 16.219C15.2373 16.2373 14.966 16.25 14.625 16.25C14.284 16.25 14.0127 16.2373 13.7987 16.219C13.3329 16.179 13.0302 15.8229 13.0123 15.3557C13.0049 15.1623 13 14.922 13 14.625C13 14.328 13.0049 14.0877 13.0123 13.8943Z" fill="url(#paint0_linear_18_2002)"/>
</g>
<defs>
<linearGradient id="paint0_linear_18_2002" x1="23.7015" y1="26.0103" x2="4.97686" y2="9.87706" gradientUnits="userSpaceOnUse">
<stop stop-color="#008072"/>
<stop offset="1" stop-color="#13B8A6"/>
</linearGradient>
<clipPath id="clip0_18_2002">
<rect width="26" height="26" fill="white"/>
</clipPath>
</defs>
</svg>
