<svg width="26" height="26" viewBox="0 0 26 26" fill="none" xmlns="http://www.w3.org/2000/svg">
<path fill-rule="evenodd" clip-rule="evenodd" d="M12.5008 12.6912C12.664 12.8907 12.664 13.1776 12.5008 13.3771L6.5509 20.6505C6.11518 21.1832 5.94959 21.8992 6.26295 22.512C6.48048 22.9373 6.79719 23.4329 7.24006 23.8669C7.68905 24.3069 8.20265 24.6199 8.64065 24.8333C9.25739 25.1338 9.97109 24.9655 10.4894 24.5159C14.1377 21.3509 18.0389 17.0833 19.7122 14.3186C20.1888 13.531 20.136 12.5623 19.633 11.7913C17.8306 9.02832 14.123 4.7348 10.4879 1.554C9.97152 1.10217 9.25739 0.934208 8.64054 1.23466C8.20239 1.44808 7.68867 1.76101 7.23979 2.20092C6.79698 2.63486 6.48032 3.13055 6.26284 3.556C5.94959 4.16878 6.11518 4.88487 6.5509 5.41755L12.5008 12.6912Z" fill="white"/>
</svg>
