<svg width="26" height="26" viewBox="0 0 26 26" fill="none" xmlns="http://www.w3.org/2000/svg">
<g clip-path="url(#clip0_60_1884)">
<path fill-rule="evenodd" clip-rule="evenodd" d="M4.00416 1.04495C5.55983 0.929755 8.19043 0.8125 12.4583 0.8125C16.7262 0.8125 19.3568 0.929755 20.9125 1.04495C22.4768 1.16078 23.7219 2.29563 23.8905 3.89198C24.0047 4.9727 24.1042 6.5279 24.1042 8.66661C24.1042 10.688 24.0153 12.1882 23.9092 13.2591C22.9939 11.953 21.4777 11.1042 19.7708 11.1042C17.0738 11.1042 14.8528 13.2235 14.7265 15.9176L14.7025 16.4297C14.6603 16.4559 14.6187 16.4828 14.5776 16.5104C13.9206 16.5172 13.2152 16.5208 12.4583 16.5208C8.19043 16.5208 5.55983 16.4036 4.00418 16.2884C2.43988 16.1725 1.19479 15.0377 1.02617 13.4414C0.911999 12.3606 0.8125 10.8054 0.8125 8.66661C0.8125 6.5279 0.911999 4.9727 1.02616 3.89198C1.19479 2.29563 2.43987 1.16078 4.00416 1.04495ZM6.5 10.2917C5.60251 10.2917 4.875 9.56415 4.875 8.66667C4.875 7.76918 5.60251 7.04167 6.5 7.04167C7.39749 7.04167 8.125 7.76918 8.125 8.66667C8.125 9.56415 7.39749 10.2917 6.5 10.2917ZM10.8333 8.66667C10.8333 9.56415 11.5608 10.2917 12.4583 10.2917C13.3558 10.2917 14.0833 9.56415 14.0833 8.66667C14.0833 7.76918 13.3558 7.04167 12.4583 7.04167C11.5608 7.04167 10.8333 7.76918 10.8333 8.66667ZM18.4167 10.2917C17.5192 10.2917 16.7917 9.56415 16.7917 8.66667C16.7917 7.76918 17.5192 7.04167 18.4167 7.04167C19.3142 7.04167 20.0417 7.76918 20.0417 8.66667C20.0417 9.56415 19.3142 10.2917 18.4167 10.2917ZM16.3497 15.9937C16.4354 14.1665 17.9417 12.7292 19.7708 12.7292C21.6 12.7292 23.1064 14.1665 23.192 15.9937L23.2621 17.4899C24.2951 17.7308 25.0554 18.5545 25.1357 19.6957C25.1666 20.1343 25.1875 20.6912 25.1875 21.3958C25.1875 22.1005 25.1666 22.6573 25.1357 23.096C25.0448 24.3878 24.0823 25.2729 22.8396 25.366C22.1532 25.4175 21.169 25.4583 19.7708 25.4583C18.3727 25.4583 17.3884 25.4175 16.702 25.366C15.4593 25.2729 14.4968 24.3878 14.406 23.096C14.3751 22.6573 14.3542 22.1005 14.3542 21.3958C14.3542 20.7708 14.3683 20.2633 14.3899 19.8522C14.4522 18.6689 15.2098 17.7825 16.279 17.503L16.3497 15.9937ZM21.0864 17.3469C20.6948 17.3383 20.258 17.3333 19.7708 17.3333C19.2844 17.3333 18.8475 17.3383 18.4553 17.3469L18.514 16.0951C18.5455 15.4239 19.0988 14.8958 19.7708 14.8958C20.4428 14.8958 20.9962 15.4239 21.0277 16.0951L21.0864 17.3469ZM19.7708 20.0417C20.2196 20.0417 20.5833 20.4055 20.5833 20.8542V21.9375C20.5833 22.3862 20.2196 22.75 19.7708 22.75C19.3221 22.75 18.9583 22.3862 18.9583 21.9375V20.8542C18.9583 20.4055 19.3221 20.0417 19.7708 20.0417Z" fill="url(#paint0_linear_60_1884)"/>
</g>
<defs>
<linearGradient id="paint0_linear_60_1884" x1="23.5" y1="26.2902" x2="4.62655" y2="10.3491" gradientUnits="userSpaceOnUse">
<stop stop-color="rgb(20, 245, 158)"/>
<stop offset="1" stop-color="rgb(20, 245, 158)"/>
</linearGradient>
<clipPath id="clip0_60_1884">
<rect width="26" height="26" fill="white"/>
</clipPath>
</defs>
</svg>
