<svg width="26" height="26" viewBox="0 0 26 26" fill="none" xmlns="http://www.w3.org/2000/svg">
<g clip-path="url(#clip0_60_1875)">
<path d="M23.2007 11.9167C23.2548 11.037 23.2917 9.96233 23.2917 8.66667C23.2917 6.55308 23.1931 5.02667 23.0826 3.97746C22.9569 2.78958 22.0437 1.9435 20.8525 1.85521C19.3223 1.74146 16.7126 1.625 12.4583 1.625C8.20408 1.625 5.59433 1.742 4.06412 1.85521C2.873 1.9435 1.95975 2.78958 1.83408 3.97746C1.72358 5.02612 1.625 6.55308 1.625 8.66667C1.625 10.7802 1.72358 12.3067 1.83408 13.3559C1.95975 14.5437 2.873 15.3898 4.06412 15.4781C5.59433 15.5919 8.20408 15.7083 12.4583 15.7083C13.234 15.7083 13.955 15.7045 14.625 15.6975" stroke="#636363" stroke-width="1.5" stroke-linecap="round" stroke-linejoin="round"/>
<path d="M15.2014 19.6246C15.2512 18.6777 15.918 18.0223 16.8638 17.9568C17.5268 17.9113 18.4639 17.875 19.7709 17.875C21.1538 17.875 22.1174 17.9156 22.7788 17.9649C23.6438 18.0299 24.2646 18.6165 24.3252 19.4816C24.3545 19.8987 24.3751 20.436 24.3751 21.125C24.3775 21.673 24.3609 22.221 24.3252 22.7679C24.2646 23.6335 23.6438 24.2201 22.7788 24.2845C22.118 24.3344 21.1538 24.375 19.7709 24.375C18.388 24.375 17.4244 24.3344 16.763 24.2851C15.898 24.2201 15.2772 23.6335 15.2166 22.7684C15.1809 22.2214 15.1643 21.6732 15.1667 21.125C15.1667 20.5118 15.1808 20.0189 15.2014 19.6246Z" stroke="#636363" stroke-width="1.5" stroke-linecap="round" stroke-linejoin="round"/>
<path d="M19.7708 20.5833V21.6667" stroke="#636363" stroke-width="1.5" stroke-linecap="round" stroke-linejoin="round"/>
<path d="M22.2083 17.875L22.1097 15.7733C22.0807 15.1725 21.8217 14.6058 21.3862 14.1908C20.9508 13.7758 20.3723 13.5443 19.7708 13.5443C19.1692 13.5443 18.5907 13.7758 18.1553 14.1908C17.7198 14.6058 17.4608 15.1725 17.4318 15.7733L17.3333 17.875" stroke="#636363" stroke-width="1.5" stroke-linecap="round" stroke-linejoin="round"/>
<path d="M4.875 8.66666C4.875 9.09763 5.0462 9.51096 5.35095 9.81571C5.6557 10.1205 6.06902 10.2917 6.5 10.2917C6.93098 10.2917 7.3443 10.1205 7.64905 9.81571C7.9538 9.51096 8.125 9.09763 8.125 8.66666C8.125 8.23568 7.9538 7.82235 7.64905 7.51761C7.3443 7.21286 6.93098 7.04166 6.5 7.04166C6.06902 7.04166 5.6557 7.21286 5.35095 7.51761C5.0462 7.82235 4.875 8.23568 4.875 8.66666Z" stroke="#636363" stroke-width="1.5" stroke-linecap="round" stroke-linejoin="round"/>
<path d="M11 8.625C11 9.05598 11.1712 9.4693 11.476 9.77405C11.7807 10.0788 12.194 10.25 12.625 10.25C13.056 10.25 13.4693 10.0788 13.774 9.77405C14.0788 9.4693 14.25 9.05598 14.25 8.625C14.25 8.19402 14.0788 7.7807 13.774 7.47595C13.4693 7.1712 13.056 7 12.625 7C12.194 7 11.7807 7.1712 11.476 7.47595C11.1712 7.7807 11 8.19402 11 8.625Z" stroke="#636363" stroke-width="1.5" stroke-linecap="round" stroke-linejoin="round"/>
<path d="M16.7917 8.66666C16.7917 9.09763 16.963 9.51096 17.2677 9.81571C17.5724 10.1205 17.9858 10.2917 18.4167 10.2917C18.8477 10.2917 19.261 10.1205 19.5658 9.81571C19.8705 9.51096 20.0417 9.09763 20.0417 8.66666C20.0417 8.23568 19.8705 7.82235 19.5658 7.51761C19.261 7.21286 18.8477 7.04166 18.4167 7.04166C17.9858 7.04166 17.5724 7.21286 17.2677 7.51761C16.963 7.82235 16.7917 8.23568 16.7917 8.66666Z" stroke="#636363" stroke-width="1.5" stroke-linecap="round" stroke-linejoin="round"/>
</g>
<defs>
<clipPath id="clip0_60_1875">
<rect width="26" height="26" fill="white"/>
</clipPath>
</defs>
</svg>
