<svg width="26" height="26" viewBox="0 0 26 26" fill="none" xmlns="http://www.w3.org/2000/svg">
<path d="M7.82157 5.15952C6.90068 5.59994 6.39019 6.46077 6.17999 7.95221C5.99982 9.1934 5.93976 14.1882 6.06988 15.8198C6.26007 18.0419 6.44024 18.6325 7.10088 19.2931C7.80155 20.0038 8.94265 20.194 10.0037 19.7936C11.4951 19.2331 15.499 17.091 17.641 15.7197C19.4528 14.5486 19.9032 13.948 19.9733 12.6267C20.0133 11.876 19.9933 11.7358 19.753 11.2454C19.5929 10.9251 19.2626 10.4947 18.9523 10.2144C17.9613 9.31352 13.6572 6.83113 10.9846 5.60995C9.88355 5.10947 9.64332 5.0394 8.98269 5.00938C8.40213 4.97935 8.14188 5.01939 7.82157 5.15952ZM11.1548 7.48175C14.3979 9.05327 17.8112 11.1253 18.2016 11.7559C18.4618 12.1763 18.4818 12.7268 18.2516 13.1772C17.8812 13.8879 12.2458 17.1611 9.56325 18.2321C8.93264 18.4823 8.86257 18.4823 8.54226 18.3522C8.35208 18.2721 8.12186 18.0719 8.04178 17.9018C7.39116 16.6406 7.39116 8.33257 8.04178 7.07136C8.22196 6.72102 8.72244 6.47078 9.08278 6.55086C9.22292 6.58089 10.1538 7.00129 11.1548 7.48175Z" fill="#636363"/>
</svg>
