<svg width="26" height="26" viewBox="0 0 26 26" fill="none" xmlns="http://www.w3.org/2000/svg">
<path d="M6.78752 7.5261C7.04005 5.59296 8.68146 4.50213 10.4291 5.2239C11.5295 5.67853 12.9737 6.36086 14.8317 7.38473C16.5865 8.35204 17.9725 9.21667 19.0486 9.94885C20.9519 11.2436 20.9519 13.7571 19.0486 15.0518C17.9725 15.7832 16.5865 16.6486 14.8317 17.6159C12.9737 18.6391 11.5295 19.3214 10.4291 19.776C8.68146 20.4978 7.04005 19.4077 6.78752 17.4746C6.57643 15.8256 6.47241 14.1638 6.47617 12.5003C6.47617 10.5136 6.61607 8.8357 6.78752 7.5261Z" fill="url(#paint0_linear_18_1947)"/>
<defs>
<linearGradient id="paint0_linear_18_1947" x1="19.5068" y1="20.5063" x2="8.14925" y2="11.4534" gradientUnits="userSpaceOnUse">
<stop stop-color="#008072"/>
<stop offset="1" stop-color="#13B8A6"/>
</linearGradient>
</defs>
</svg>
