<svg width="26" height="26" viewBox="0 0 26 26" fill="none" xmlns="http://www.w3.org/2000/svg">
<path fill-rule="evenodd" clip-rule="evenodd" d="M13.5408 12.6078C13.3776 12.8074 13.3776 13.0942 13.5408 13.2938L19.4907 20.5671C19.9264 21.0998 20.092 21.8159 19.7787 22.4286C19.5611 22.8539 19.2444 23.3495 18.8016 23.7835C18.3526 24.2235 17.839 24.5365 17.401 24.7499C16.7842 25.0504 16.0705 24.8821 15.5523 24.4326C11.9039 21.2675 8.00268 17 6.32945 14.2352C5.85281 13.4477 5.90561 12.4789 6.40858 11.7079C8.211 8.94495 11.9187 4.65143 15.5537 1.47062C16.0701 1.0188 16.7842 0.850833 17.4011 1.15129C17.8392 1.36471 18.353 1.67763 18.8018 2.11755C19.2446 2.55148 19.5613 3.04717 19.7788 3.47263C20.092 4.0854 19.9264 4.8015 19.4907 5.33418L13.5408 12.6078Z" fill="white"/>
</svg>
