<svg width="26" height="26" viewBox="0 0 26 26" fill="none" xmlns="http://www.w3.org/2000/svg">
<path fill-rule="evenodd" clip-rule="evenodd" d="M17.8878 15.9642C20.6675 12.2516 20.3697 6.96419 16.9945 3.58892C13.2926 -0.112935 7.29073 -0.112928 3.58889 3.58892C-0.112963 7.29077 -0.112963 13.2926 3.58889 16.9945C7.01797 20.4236 12.4206 20.6762 16.1405 17.7525L19.4857 21.0977C19.9739 21.5859 20.7653 21.5859 21.2535 21.0977C21.7417 20.6096 21.7417 19.8181 21.2535 19.3299L17.8878 15.9642ZM16.7922 10.2921C16.7922 10.8904 16.3072 11.3754 15.7089 11.3754C15.1106 11.3754 14.6255 10.8904 14.6256 10.2921C14.6256 7.89884 12.6854 5.95871 10.2922 5.95871C9.6939 5.95875 9.20888 5.47374 9.20888 4.87539C9.20888 4.27712 9.69394 3.79207 10.2922 3.79207C13.8821 3.79207 16.7922 6.70223 16.7922 10.2921Z" fill="url(#paint0_linear_18_2104)"/>
<defs>
<linearGradient id="paint0_linear_18_2104" x1="20.1791" y1="22.1609" x2="4.3181" y2="8.51313" gradientUnits="userSpaceOnUse">
<stop stop-color="rgb(20, 245, 158)"/>
<stop offset="1" stop-color="rgb(20, 245, 158)"/>
</linearGradient>
</defs>
</svg>
