<svg width="26" height="26" viewBox="0 0 26 26" fill="none" xmlns="http://www.w3.org/2000/svg">
<g clip-path="url(#clip0_18_2108)">
<path d="M4.16307 4.1634C0.778361 7.54811 0.778361 13.0352 4.16307 16.4199C7.54779 19.8046 13.0349 19.8046 16.4196 16.4199C19.8043 13.0352 19.8043 7.54811 16.4196 4.1634C13.0349 0.778684 7.54779 0.778684 4.16307 4.1634Z" stroke="#636363" stroke-width="1.5" stroke-linecap="round" stroke-linejoin="round"/>
<path d="M10.2919 4.87551C13.2836 4.87512 15.7089 7.30038 15.7085 10.2921" stroke="#636363" stroke-width="1.5" stroke-linecap="round" stroke-linejoin="round"/>
<path d="M19.839 20.7441C20.1319 21.037 20.6067 21.037 20.8996 20.7441C21.1925 20.4513 21.1925 19.9764 20.8996 19.6835L19.839 20.7441ZM16.0473 16.9525L19.839 20.7441L20.8996 19.6835L17.108 15.8918L16.0473 16.9525Z" fill="#636363"/>
</g>
<defs>
<clipPath id="clip0_18_2108">
<rect width="26" height="26" fill="white" transform="matrix(-1 0 0 1 26 0)"/>
</clipPath>
</defs>
</svg>
