<svg width="26" height="26" viewBox="0 0 26 26" fill="none" xmlns="http://www.w3.org/2000/svg">
  <path d="M10.3773 2.36275C10.4396 2.23275 10.5295 2.11846 10.6574 2.05129C10.9607 1.89204 11.6692 1.625 13.0006 1.625C14.332 1.625 15.04 1.89204 15.3433 2.05129C15.4711 2.11846 15.5611 2.23275 15.6239 2.36275C15.8054 2.74192 16.21 3.61617 16.5139 4.48608C17.2646 4.79636 17.9709 5.20472 18.6144 5.7005C19.5201 5.52879 20.4816 5.44213 20.9014 5.40963C21.0449 5.39879 21.189 5.41938 21.3109 5.49629C21.6006 5.67992 22.1862 6.15929 22.8514 7.3125C23.5176 8.46571 23.64 9.21212 23.6541 9.555C23.6595 9.69908 23.6059 9.83396 23.5241 9.95313C23.2863 10.3003 22.7311 11.089 22.1299 11.7872C22.2358 12.5923 22.2358 13.4077 22.1299 14.2128C22.7311 14.9115 23.2863 15.6997 23.5241 16.0469C23.6054 16.166 23.6595 16.3015 23.6541 16.445C23.64 16.7879 23.5171 17.5343 22.8514 18.6875C22.1856 19.8407 21.6001 20.3201 21.3109 20.5037C21.189 20.5806 21.0454 20.6012 20.9008 20.5904C20.481 20.5579 19.5201 20.4712 18.615 20.2995C17.9715 20.7955 17.2652 21.204 16.5144 21.5145C16.21 22.3838 15.8054 23.2575 15.6239 23.6378C15.5611 23.7678 15.4711 23.8815 15.3433 23.9487C15.04 24.108 14.332 24.375 13.0006 24.375C11.6692 24.375 10.9612 24.108 10.6574 23.9487C10.5295 23.8815 10.4396 23.7678 10.3773 23.6373C10.1959 23.2581 9.79069 22.3838 9.48681 21.5139C8.73608 21.2036 8.02974 20.7953 7.38623 20.2995C6.48056 20.4712 5.51965 20.5579 5.1004 20.5904C4.95631 20.6012 4.81223 20.5806 4.69036 20.5037C4.40056 20.3201 3.81502 19.8407 3.14931 18.6875C2.48361 17.5343 2.36119 16.7879 2.34765 16.445C2.34115 16.3009 2.39531 16.166 2.47711 16.0469C2.7149 15.6997 3.27011 14.911 3.87136 14.2128C3.7654 13.4077 3.7654 12.5923 3.87136 11.7872C3.27011 11.0885 2.7149 10.3003 2.47656 9.95313C2.39531 9.83396 2.34115 9.69854 2.34656 9.555C2.36119 9.21212 2.48361 8.46571 3.14931 7.3125C3.81556 6.15929 4.40056 5.67992 4.68981 5.49629C4.81223 5.41938 4.95577 5.39879 5.09986 5.40963C5.51965 5.44213 6.48111 5.52879 7.38623 5.7005C8.02969 5.20451 8.73603 4.79597 9.48681 4.48554C9.79069 3.61617 10.1959 2.74246 10.3773 2.36275Z" stroke="white" stroke-width="1.5" stroke-linecap="round" stroke-linejoin="round"/>
  <path d="M7.5835 13C7.5835 14.4366 8.15418 15.8143 9.17 16.8302C10.1858 17.846 11.5636 18.4167 13.0002 18.4167C14.4368 18.4167 15.8145 17.846 16.8303 16.8302C17.8461 15.8143 18.4168 14.4366 18.4168 13C18.4168 11.5634 17.8461 10.1857 16.8303 9.16985C15.8145 8.15403 14.4368 7.58334 13.0002 7.58334C11.5636 7.58334 10.1858 8.15403 9.17 9.16985C8.15418 10.1857 7.5835 11.5634 7.5835 13Z" stroke="white" stroke-width="1.5" stroke-linecap="round" stroke-linejoin="round"/>
</svg>
