<svg width="26" height="26" viewBox="0 0 26 26" fill="none" xmlns="http://www.w3.org/2000/svg">
<path fill-rule="evenodd" clip-rule="evenodd" d="M10.2809 1.33142C10.7169 1.10229 11.5581 0.8125 13 0.8125C14.4419 0.8125 15.2831 1.10229 15.7203 1.33142C16.0518 1.50475 16.2457 1.781 16.3562 2.01175C16.5133 2.33946 16.8572 3.07883 17.1579 3.87996C17.7403 4.14593 18.2959 4.46717 18.817 4.83925C19.662 4.69842 20.475 4.628 20.8379 4.59929C21.0925 4.57979 21.4284 4.61012 21.7452 4.81054C22.1623 5.07379 22.834 5.65717 23.5544 6.90625C24.2759 8.15533 24.4449 9.0285 24.4649 9.52142C24.4806 9.89517 24.3387 10.2012 24.1941 10.4125C23.8108 10.9727 23.4042 11.5167 22.9754 12.0429C23.0357 12.6795 23.0357 13.3205 22.9754 13.9571C23.4042 14.4833 23.8108 15.0273 24.1941 15.5875C24.3387 15.7988 24.4806 16.1043 24.4649 16.4786C24.4449 16.9715 24.2754 17.8447 23.5549 19.0938C22.8334 20.3428 22.1618 20.9262 21.7452 21.19C21.4289 21.3904 21.0931 21.4202 20.8379 21.4007C20.1612 21.349 19.487 21.2689 18.817 21.1608C18.2959 21.5328 17.7403 21.8541 17.1579 22.12C16.9168 22.7537 16.6494 23.377 16.3562 23.9883C16.2457 24.219 16.0518 24.4947 15.7203 24.6686C15.2831 24.8972 14.4419 25.1875 13 25.1875C11.5581 25.1875 10.7169 24.8977 10.2798 24.6686C9.94827 24.4953 9.75436 24.219 9.64386 23.9883C9.48677 23.6605 9.14281 22.9212 8.84219 22.12C8.25974 21.8541 7.70415 21.5328 7.18306 21.1608C6.33806 21.3016 5.52448 21.372 5.16156 21.4007C4.90698 21.4202 4.57115 21.3899 4.25481 21.1895C3.83773 20.9262 3.16606 20.3428 2.44565 19.0938C1.72415 17.8447 1.55461 16.9715 1.53456 16.4786C1.5194 16.1048 1.66131 15.7988 1.8054 15.5875C2.18868 15.0273 2.59529 14.4833 3.02415 13.9571C2.96381 13.3205 2.96381 12.6795 3.02415 12.0429C2.59529 11.5167 2.18869 10.9727 1.8054 10.4125C1.66131 10.2012 1.5194 9.89571 1.53456 9.52142C1.55515 9.0285 1.72415 8.15533 2.44511 6.90625C3.16606 5.65717 3.83827 5.07379 4.25481 4.81C4.57115 4.60958 4.90698 4.57979 5.16211 4.59929C5.52502 4.62746 6.33752 4.69896 7.18252 4.83925C7.70378 4.46713 8.25955 4.14589 8.84219 3.87996C9.08323 3.24631 9.35068 2.62303 9.64386 2.01175C9.75436 1.781 9.94827 1.50529 10.2798 1.33142H10.2809ZM17.3334 13C17.3334 14.1493 16.8768 15.2515 16.0642 16.0641C15.2515 16.8768 14.1493 17.3333 13 17.3333C11.8508 17.3333 10.7486 16.8768 9.93589 16.0641C9.12323 15.2515 8.66669 14.1493 8.66669 13C8.66669 11.8507 9.12323 10.7485 9.93589 9.93587C10.7486 9.12321 11.8508 8.66667 13 8.66667C14.1493 8.66667 15.2515 9.12321 16.0642 9.93587C16.8768 10.7485 17.3334 11.8507 17.3334 13Z" fill="url(#paint0_linear_18_2073)"/>
<defs>
<linearGradient id="paint0_linear_18_2073" x1="22.8785" y1="26.0103" x2="4.39002" y2="11.1551" gradientUnits="userSpaceOnUse">
<stop stop-color="rgb(20, 245, 158)"/>
<stop offset="1" stop-color="rgb(20, 245, 158)"/>
</linearGradient>
</defs>
</svg>
