<svg width="26" height="26" viewBox="0 0 26 26" fill="none" xmlns="http://www.w3.org/2000/svg">
<path d="M17.9725 17.4124C17.7693 18.0293 16.8973 18.0293 16.6941 17.4124L15.3302 13.2654C15.2973 13.1653 15.2413 13.0743 15.1668 12.9998C15.0923 12.9253 15.0013 12.8693 14.9012 12.8364L10.7542 11.4725C10.1373 11.2693 10.1373 10.3973 10.7542 10.1941L14.9012 8.83022C15.0014 8.79739 15.0924 8.74145 15.1669 8.66692C15.2414 8.59239 15.2974 8.50137 15.3302 8.40122L16.6941 4.25422C16.8973 3.63726 17.7693 3.63726 17.9725 4.25422L19.3364 8.40122C19.403 8.60435 19.5623 8.7636 19.7654 8.83022L23.9124 10.1941C24.5293 10.3973 24.5293 11.2693 23.9124 11.4725L19.7654 12.8364C19.6653 12.8693 19.5743 12.9253 19.4998 12.9998C19.4253 13.0743 19.3693 13.1653 19.3364 13.2654L17.9725 17.4124Z" stroke="#636363" stroke-width="1.5"/>
<path d="M9.19208 23.9947C9.02525 24.5017 8.30808 24.5017 8.14125 23.9947L7.11208 20.865C7.08505 20.7828 7.0391 20.7082 6.97795 20.647C6.9168 20.5859 6.84215 20.5399 6.76 20.5129L3.63025 19.4837C3.12325 19.3169 3.12325 18.5997 3.63025 18.4329L6.76 17.4037C6.84215 17.3767 6.9168 17.3307 6.97795 17.2696C7.0391 17.2084 7.08505 17.1338 7.11208 17.0516L8.14125 13.9219C8.30808 13.4149 9.02525 13.4149 9.19208 13.9219L10.2212 17.0516C10.276 17.2185 10.4065 17.349 10.5733 17.4037L13.7031 18.4329C14.2101 18.5997 14.2101 19.3169 13.7031 19.4837L10.5733 20.5129C10.4912 20.5399 10.4165 20.5859 10.3554 20.647C10.2942 20.7082 10.2483 20.7828 10.2212 20.865L9.19208 23.9947Z" stroke="#636363" stroke-width="1.5"/>
<path d="M6.97277 11.0332C6.82272 11.4888 6.17706 11.4888 6.02756 11.0332L5.10131 8.21656C5.07696 8.14248 5.03554 8.07517 4.98041 8.02004C4.92528 7.9649 4.85796 7.92349 4.78389 7.89914L1.96722 6.97289C1.5106 6.82285 1.5106 6.17718 1.96722 6.02768L4.78389 5.10143C4.85788 5.07704 4.92511 5.03561 4.98015 4.98048C5.03519 4.92534 5.07651 4.85805 5.10077 4.78401L6.02702 1.96735C6.17706 1.51072 6.82272 1.51072 6.97222 1.96735L7.89847 4.78401C7.9229 4.85798 7.96434 4.92519 8.01947 4.98023C8.0746 5.03526 8.14188 5.07659 8.21589 5.10089L11.0326 6.02714C11.4892 6.17718 11.4892 6.82285 11.0326 6.97235L8.21589 7.8986C8.14192 7.92302 8.07471 7.96447 8.01968 8.0196C7.96464 8.07472 7.92331 8.142 7.89902 8.21601L6.97277 11.0332Z" stroke="#636363" stroke-width="1.5"/>
</svg>
