<svg width="26" height="26" viewBox="0 0 26 26" fill="none" xmlns="http://www.w3.org/2000/svg">
<g clip-path="url(#clip0_18_2009)">
<path fill-rule="evenodd" clip-rule="evenodd" d="M13 19.7697C8.97921 19.7697 6.16633 19.6544 4.40104 19.5444C2.64821 19.4355 1.22254 18.135 1.05679 16.3486C0.9295 14.9803 0.8125 12.9881 0.8125 10.2906C0.8125 7.59307 0.9295 5.60082 1.05625 4.23311C1.22254 2.44615 2.64821 1.14561 4.40104 1.03673C6.16633 0.926776 8.97921 0.811401 13 0.811401C17.0208 0.811401 19.8337 0.926776 21.599 1.03673C23.3518 1.14561 24.7775 2.44615 24.9432 4.23257C25.0705 5.60082 25.1875 7.59307 25.1875 10.2906C25.1875 12.9881 25.0705 14.9803 24.9438 16.348C24.7775 18.135 23.3518 19.4355 21.599 19.5444C19.8337 19.6544 17.0208 19.7697 13 19.7697ZM13 21.3947C12.0158 21.3947 11.1025 21.3877 10.2581 21.3758L10.1416 22.3074C10.1172 22.504 10.0218 22.6849 9.87337 22.8161C9.72494 22.9472 9.53371 23.0197 9.33563 23.0197H7.79188C7.51658 23.0197 7.24826 23.1064 7.02495 23.2674C6.80164 23.4284 6.63466 23.6555 6.54767 23.9167C6.49934 24.0618 6.48618 24.2162 6.50925 24.3673C6.53232 24.5184 6.59098 24.6619 6.68038 24.7859C6.76978 24.9099 6.88737 25.0109 7.02345 25.0805C7.15954 25.1501 7.31022 25.1864 7.46308 25.1864H18.5375C18.6903 25.1864 18.841 25.1501 18.9771 25.0805C19.1132 25.0109 19.2308 24.9099 19.3202 24.7859C19.4096 24.6619 19.4682 24.5184 19.4913 24.3673C19.5144 24.2162 19.5012 24.0618 19.4529 23.9167C19.3658 23.6555 19.1987 23.4283 18.9753 23.2673C18.7519 23.1063 18.4835 23.0197 18.2081 23.0197H16.6644C16.4664 23.0197 16.2752 22.9473 16.1268 22.8163C15.9784 22.6852 15.8829 22.5045 15.8584 22.308L15.7419 21.3758C14.8975 21.3877 13.9842 21.3947 13 21.3947Z" fill="url(#paint0_linear_18_2009)"/>
</g>
<defs>
<linearGradient id="paint0_linear_18_2009" x1="23.5" y1="26.0092" x2="4.80053" y2="10.0395" gradientUnits="userSpaceOnUse">
<stop stop-color="#008072"/>
<stop offset="1" stop-color="#13B8A6"/>
</linearGradient>
<clipPath id="clip0_18_2009">
<rect width="26" height="26" fill="white"/>
</clipPath>
</defs>
</svg>
