<svg width="26" height="26" viewBox="0 0 26 26" fill="none" xmlns="http://www.w3.org/2000/svg">
<g clip-path="url(#clip0_18_1932)">
<path d="M15.1661 18.9605L15.5334 20.7978C15.5825 21.0434 15.7151 21.2644 15.9088 21.4232C16.1025 21.582 16.3452 21.6688 16.5956 21.6688H17.0836C17.4594 21.6688 17.8235 21.799 18.114 22.0372C18.4046 22.2754 18.6036 22.6069 18.6772 22.9753L18.6989 23.0815C18.7303 23.2387 18.7265 23.4009 18.6876 23.5564C18.6487 23.712 18.5759 23.8569 18.4742 23.9809C18.3725 24.1048 18.2446 24.2047 18.0997 24.2732C17.9548 24.3417 17.7965 24.3772 17.6361 24.3772H8.36282C8.20251 24.3772 8.04419 24.3417 7.89927 24.2732C7.75435 24.2047 7.62644 24.1048 7.52478 23.9809C7.42311 23.8569 7.35022 23.712 7.31136 23.5564C7.2725 23.4009 7.26865 23.2387 7.30007 23.0815L7.32173 22.9753C7.39535 22.607 7.5943 22.2756 7.88474 22.0374C8.17517 21.7992 8.53916 21.6689 8.91477 21.6688H9.40281C9.65326 21.6688 9.89596 21.582 10.0896 21.4232C10.2833 21.2644 10.4159 21.0434 10.465 20.7978L10.8334 18.9605" stroke="#636363" stroke-width="1.5" stroke-linecap="round" stroke-linejoin="round"/>
<path d="M1.8655 16.2749C1.99279 17.6443 3.07883 18.6501 4.45142 18.7357C6.19829 18.8441 8.99492 18.9594 13 18.9594C17.0051 18.9594 19.8017 18.8441 21.5486 18.7357C22.9212 18.6501 24.0072 17.6443 24.1345 16.2749C24.2591 14.9338 24.375 12.967 24.375 10.2928C24.375 7.61856 24.2591 5.65177 24.1345 4.3106C24.0072 2.94127 22.9212 1.93539 21.5486 1.84981C19.8017 1.74147 17.0051 1.6261 13 1.6261C8.99492 1.6261 6.19829 1.74093 4.45142 1.84981C3.07883 1.93539 1.99279 2.94127 1.8655 4.3106C1.74092 5.65122 1.625 7.61802 1.625 10.2928C1.625 12.9675 1.74092 14.9338 1.8655 16.2749Z" stroke="#636363" stroke-width="1.5" stroke-linejoin="round"/>
</g>
<defs>
<clipPath id="clip0_18_1932">
<rect width="26" height="26" fill="white"/>
</clipPath>
</defs>
</svg>
