<svg width="26" height="26" viewBox="0 0 26 26" fill="none" xmlns="http://www.w3.org/2000/svg">
<g clip-path="url(#clip0_60_1887)">
<path fill-rule="evenodd" clip-rule="evenodd" d="M9.53361 0.489883C5.60793 0.489883 2.42559 3.67228 2.42559 7.5979C2.42559 9.7832 3.41185 11.7372 4.96167 13.0405C2.57141 14.3657 0.823826 16.6986 0.307889 19.4657C0.179568 20.1537 0.30881 20.8363 0.70011 21.381C1.09228 21.927 1.69981 22.2675 2.39964 22.358C3.64277 22.5189 5.79595 22.6669 9.53372 22.6669C10.9205 22.6669 12.0892 22.6465 13.0742 22.6126C12.4318 21.3556 12.0925 19.9467 12.0925 18.5158C12.0925 17.6289 12.136 16.8322 12.1886 16.1914C12.3151 14.6522 13.1959 13.097 14.776 12.3979C15.9342 11.1337 16.6416 9.44878 16.6416 7.5979C16.6416 3.67228 13.4593 0.489883 9.53361 0.489883ZM19.7693 13.5686C18.1417 13.5686 17.0112 13.6482 16.229 13.7493C14.82 13.9318 13.9925 15.0704 13.8889 16.3311C13.8394 16.9343 13.7985 17.6837 13.7985 18.5158C13.7985 21.1198 15.1742 23.5886 17.5346 24.8035C18.2222 25.1573 19.0552 25.5101 19.7693 25.5101C20.4833 25.5101 21.3163 25.1573 22.0039 24.8035C24.3643 23.5886 25.74 21.1198 25.74 18.5158C25.74 17.6837 25.6991 16.9343 25.6496 16.3311C25.546 15.0704 24.7186 13.9318 23.3096 13.7493C22.5274 13.6482 21.3969 13.5686 19.7693 13.5686ZM22.5197 16.2726C22.9107 16.5354 23.0145 17.0654 22.7517 17.4564L20.0758 21.4369C19.9283 21.6562 19.6875 21.7948 19.4238 21.8121C19.1601 21.8294 18.9032 21.7235 18.7283 21.5253L16.8551 19.4024C16.5434 19.0492 16.5772 18.5102 16.9304 18.1985C17.2836 17.8868 17.8226 17.9204 18.1343 18.2737L19.2764 19.5681L21.336 16.5046C21.5987 16.1137 22.1288 16.0098 22.5197 16.2726Z" fill="url(#paint0_linear_60_1887)"/>
</g>
<defs>
<linearGradient id="paint0_linear_60_1887" x1="23.976" y1="26.3547" x2="4.72988" y2="9.61611" gradientUnits="userSpaceOnUse">
<stop stop-color="rgb(20, 245, 158)"/>
<stop offset="1" stop-color="rgb(20, 245, 158)"/>
</linearGradient>
<clipPath id="clip0_60_1887">
<rect width="26" height="26" fill="white"/>
</clipPath>
</defs>
</svg>
