<svg width="26" height="26" viewBox="0 0 26 26" fill="none" xmlns="http://www.w3.org/2000/svg">
<g clip-path="url(#clip0_60_1890)">
<path d="M13.8858 15.8139C13.9667 14.8988 14.5356 14.1688 15.4451 14.0403C16.2417 13.9278 17.4647 13.8309 19.317 13.8309C21.1693 13.8309 22.3923 13.9278 23.1888 14.0403C24.0984 14.1688 24.6678 14.8988 24.7476 15.8139C24.8194 16.628 24.8556 17.4449 24.8561 18.2622C24.8561 20.7625 23.5361 23.1023 21.3133 24.2466C20.5705 24.6288 19.8454 24.9091 19.317 24.9091C18.7885 24.9091 18.0634 24.6288 17.3207 24.2466C15.0973 23.1023 13.7778 20.7625 13.7778 18.2622C13.7778 17.3161 13.8283 16.4714 13.8858 15.8139Z" stroke="#636363" stroke-width="1.5" stroke-linecap="round" stroke-linejoin="round"/>
<path d="M17.3784 18.687L19.203 20.7548L21.8097 16.8774" stroke="#636363" stroke-width="1.5" stroke-linecap="round" stroke-linejoin="round"/>
<path d="M12.0869 12.6272C14.143 11.5919 15.4402 9.48605 15.4397 7.18391C15.4397 3.81892 12.7117 1.09087 9.34662 1.09087C5.98157 1.09087 3.25363 3.81892 3.25363 7.18391C3.25314 9.48605 4.55027 11.5919 6.60644 12.6272C3.82747 13.5888 1.72201 15.9717 1.17645 18.897C1.0003 19.842 1.5503 20.6141 2.50418 20.7376C3.66459 20.8877 5.72238 21.0317 9.34667 21.0317C9.94213 21.0317 10.4949 21.0279 11.0084 21.0207" stroke="#636363" stroke-width="1.5" stroke-linecap="round" stroke-linejoin="round"/>
</g>
<defs>
<clipPath id="clip0_60_1890">
<rect width="26" height="26" fill="white"/>
</clipPath>
</defs>
</svg>
